{"title":"Django Unchained (Portable).m4v","uid":11274958,"size":1457558334,"categoryP":"video","categoryS":"handheld","magnet":"?xt=urn:btih:79a543a4098de2864cc0cf9c719393163b4ff579&amp;dn=Django+Unchained+%28Portable%29.m4v&amp;tr=udp%3A%2F%2Ftracker.openbittorrent.com%3A80&amp;tr=udp%3A%2F%2Fopen.demonii.com%3A1337&amp;tr=udp%3A%2F%2Ftracker.coppersurfer.tk%3A6969&amp;tr=udp%3A%2F%2Fexodus.desync.com%3A6969","seeders":2,"leechers":0,"uploader":"arctictpb","files":1,"time":1414129403,"description":"General\nComplete name : Django Unchained (Portable).m4v\nFormat : MPEG-4\nFormat profile : Base Media / Version 2\nCodec ID : mp42\nFile size : 1.36 GiB\nDuration : 2h 45mn\nOverall bit rate mode : Variable\nOverall bit rate : 1 175 Kbps\nMovie name : Django Unchained\nPerformer : Quentin Tarantino\nExecutive producer : Harvey Weinstein, Bob Weinstein, James W. Skotchdopole, Michael Shamberg, Shannon McIntosh\nGenre : Drama, Western\nContentType : Short Film\nDescription : With the help of a German bounty hunter, a freed slave sets out to rescue his wife from a brutal Mississippi plantation owner.\nRecorded date : 2012-12-25\nWriting application : HandBrake 6443svn 2014101301\nCover : Yes\nRating : None\nLongDescription : With the help of a German bounty hunter, a freed slave sets out to rescue his wife from a brutal Mississippi plantation owner.\nContentRating : mpaa|R|400|\n\nVideo\nID : 1\nFormat : AVC\nFormat/Info : Advanced Video Codec\nFormat profile : &lt;a class=&quot;__cf_email__&quot; href=&quot;/cdn-cgi/l/email-protection&quot; data-cfemail=&quot;f0b8999798b0bcc3dec1&quot;&gt;[email&amp;#160;protected]&lt;/a&gt;&lt;script cf-hash='f9e31' type=&quot;text/javascript&quot;&gt;\n/* &lt;![CDATA[ */!function(){try{var t=&quot;currentScript&quot;in document?document.currentScript:function(){for(var t=document.getElementsByTagName(&quot;script&quot;),e=t.length;e--;)if(t[e].getAttribute(&quot;cf-hash&quot;))return t[e]}();if(t&amp;&amp;t.previousSibling){var e,r,n,i,c=t.previousSibling,a=c.getAttribute(&quot;data-cfemail&quot;);if(a){for(e=&quot;&quot;,r=parseInt(a.substr(0,2),16),n=2;a.length-n;n+=2)i=parseInt(a.substr(n,2),16)^r,e+=String.fromCharCode(i);e=document.createTextNode(e),c.parentNode.replaceChild(e,c)}}}catch(u){}}();/* ]]&gt; */&lt;/script&gt;\nFormat settings, CABAC : Yes\nFormat settings, ReFrames : 4 frames\nCodec ID : avc1\nCodec ID/Info : Advanced Video Coding\nDuration : 2h 45mn\nBit rate : 1 007 Kbps\nWidth : 960 pixels\nHeight : 400 pixels\nDisplay aspect ratio : 2.40:1\nFrame rate mode : Variable\nFrame rate : 23.976 fps\nMinimum frame rate : 17.026 fps\nMaximum frame rate : 23.981 fps\nColor space : YUV\nChroma subsampling : 4:2:0\nBit depth : 8 bits\nScan type : Progressive\nBits/(Pixel*Frame) : 0.109\nStream size : 1.16 GiB (86%)\nWriting library : x264 core 142 r2479 dd79a61\nEncoding settings : cabac=1 / ref=4 / deblock=1:0:0 / analyse=0x3:0x133 / me=umh / subme=10 / psy=1 / psy_rd=1.00:0.15 / mixed_ref=1 / me_range=32 / chroma_me=1 / trellis=2 / 8x8dct=1 / cqm=0 / deadzone=21,11 / fast_pskip=1 / chroma_qp_offset=-3 / threads=12 / lookahead_threads=1 / sliced_threads=0 / nr=0 / decimate=1 / interlaced=0 / bluray_compat=0 / constrained_intra=0 / bframes=4 / b_pyramid=2 / b_adapt=2 / b_bias=0 / direct=3 / weightb=1 / open_gop=0 / weightp=2 / keyint=240 / keyint_min=24 / scenecut=40 / intra_refresh=0 / rc_lookahead=60 / rc=crf / mbtree=1 / crf=20.0 / qcomp=0.60 / qpmin=0 / qpmax=69 / qpstep=4 / vbv_maxrate=17500 / vbv_bufsize=17500 / crf_max=0.0 / nal_hrd=none / filler=0 / ip_ratio=1.40 / aq=1:1.00\nColor primaries : BT.709\nTransfer characteristics : BT.709\nMatrix coefficients : BT.709\n\nAudio\nID : 2\nFormat : AAC\nFormat/Info : Advanced Audio Codec\nFormat profile : LC\nCodec ID : 40\nDuration : 2h 45mn\nBit rate mode : Variable\nBit rate : 160 Kbps\nMaximum bit rate : 278 Kbps\nChannel(s) : 2 channels\nChannel positions : Front: L R\nSampling rate : 48.0 KHz\nCompression mode : Lossy\nStream size : 189 MiB (14%)\nTitle : Stereo\nLanguage : English","torrent":{"xt":"urn:btih:79a543a4098de2864cc0cf9c719393163b4ff579","amp;dn":"Django+Unchained+%28Portable%29.m4v","amp;tr":["udp%3A%2F%2Ftracker.openbittorrent.com%3A80","udp%3A%2F%2Fopen.demonii.com%3A1337","udp%3A%2F%2Ftracker.coppersurfer.tk%3A6969","udp%3A%2F%2Fexodus.desync.com%3A6969"],"infoHash":"79a543a4098de2864cc0cf9c719393163b4ff579","infoHashBuffer":{"type":"Buffer","data":[121,165,67,164,9,141,226,134,76,192,207,156,113,147,147,22,59,79,245,121]},"announce":[],"urlList":[]}}